<?xml version="1.0" standalone="no"?>
<svg xmlns="http://www.w3.org/2000/svg" viewBox="0 0 180.6 29" width="180.6" height="29"><path fill="#1c2149" fill-rule="nonzero" d="M12.48 1.85L12.48 4.82L7.90 4.82L7.90 18.94L4.56 18.94L4.56 4.82L0 4.82L0 1.85L12.48 1.85ZM22.10 5.28L22.10 5.28L21.24 8.35Q20.88 8.21 20.42 8.21L20.42 8.21Q19.22 8.21 17.47 9.24L17.47 9.24L17.47 18.94L14.35 18.94L14.35 5.23L16.68 5.23L17.40 6.43L20.71 5.06Q20.95 5.04 21.36 5.04Q21.77 5.04 22.10 5.28ZM33.62 5.14L33.62 18.94L31.54 18.94L30.58 17.28L27.24 19.08Q24.46 19.08 23.50 17.06L23.50 17.06Q23.02 16.08 22.84 14.94Q22.66 13.80 22.66 12.56Q22.66 11.33 22.68 10.74Q22.70 10.15 22.80 9.37Q22.90 8.59 23.08 8.06Q23.26 7.54 23.59 6.97Q23.93 6.41 24.41 6.07L24.41 6.07Q25.49 5.33 27.22 5.33L27.22 5.33L30.50 5.33L33.62 5.14ZM28.13 15.79L30.50 14.57L30.50 8.14L28.13 8.14Q26.81 8.14 26.29 9.14Q25.78 10.15 25.78 12.16Q25.78 14.16 26.27 14.98Q26.76 15.79 28.13 15.79L28.13 15.79ZM43.70 5.23L46.99 5.23L42.41 18.94L39.96 18.94L35.35 5.23L38.64 5.23L41.18 14.16L43.70 5.23ZM59.11 12.82L59.11 12.82L51.12 12.82Q51.12 14.69 51.71 15.55Q52.30 16.42 54.07 16.42L54.07 16.42Q55.22 16.42 55.78 15.68Q56.33 14.95 56.33 14.28L56.33 14.28L59.14 14.28Q59.14 16.85 57.76 18.05Q56.38 19.25 54.11 19.25Q51.84 19.25 50.59 18.60L50.59 18.60Q48.02 17.28 48.02 11.59L48.02 11.59Q48.02 8.21 49.49 6.64Q50.95 5.06 53.95 5.06L53.95 5.06Q59.16 5.06 59.16 10.85L59.16 10.85Q59.16 11.47 59.11 12.82ZM51.19 10.68L51.19 10.68L56.33 10.68Q56.33 9.10 55.73 8.38Q55.13 7.66 53.89 7.66Q52.66 7.66 51.92 8.39Q51.19 9.12 51.19 10.68ZM64.99 0.89L64.99 18.94L61.87 18.96L61.87 0.89L64.99 0.89ZM86.54 14.02L86.54 14.02Q86.54 16.39 85.26 17.66Q83.98 18.94 81.67 18.94L81.67 18.94L79.37 18.94Q76.54 18.94 75.35 17.95Q74.16 16.97 74.16 14.54L74.16 14.54L74.16 1.85L81.38 1.85Q83.83 1.85 85.07 3.07Q86.30 4.30 86.30 6.53L86.30 6.53Q86.30 7.82 85.64 8.74Q84.98 9.65 84.19 10.03L84.19 10.03Q86.54 11.14 86.54 14.02ZM77.50 8.52L81.12 8.52Q82.97 8.52 82.97 6.67Q82.97 4.82 81.12 4.82L81.12 4.82L77.50 4.82L77.50 8.52ZM83.21 13.85L83.21 13.85Q83.21 12.70 82.80 12.11Q82.39 11.52 81.34 11.52L81.34 11.52L77.50 11.52L77.50 14.21Q77.50 15.19 77.99 15.58Q78.48 15.96 79.61 15.96L79.61 15.96L81.34 15.96Q83.21 15.96 83.21 13.85ZM96.98 5.28L96.98 5.28L96.12 8.35Q95.76 8.21 95.30 8.21L95.30 8.21Q94.10 8.21 92.35 9.24L92.35 9.24L92.35 18.94L89.23 18.94L89.23 5.23L91.56 5.23L92.28 6.43L95.59 5.06Q95.83 5.04 96.24 5.04Q96.65 5.04 96.98 5.28ZM108.50 5.14L108.50 18.94L106.42 18.94L105.46 17.28L102.12 19.08Q99.34 19.08 98.38 17.06L98.38 17.06Q97.90 16.08 97.72 14.94Q97.54 13.80 97.54 12.56Q97.54 11.33 97.56 10.74Q97.58 10.15 97.68 9.37Q97.78 8.59 97.96 8.06Q98.14 7.54 98.47 6.97Q98.81 6.41 99.29 6.07L99.29 6.07Q100.37 5.33 102.10 5.33L102.10 5.33L105.38 5.33L108.50 5.14ZM103.01 15.79L105.38 14.57L105.38 8.14L103.01 8.14Q101.69 8.14 101.17 9.14Q100.66 10.15 100.66 12.16Q100.66 14.16 101.15 14.98Q101.64 15.79 103.01 15.79L103.01 15.79ZM121.30 15.14L121.30 15.14L121.30 15.50Q121.15 17.30 119.77 18.22Q118.39 19.13 116.33 19.13L116.33 19.13Q113.28 19.13 112.06 18.02L112.06 18.02Q110.93 17.02 110.93 15.05L110.93 15.05L110.93 14.76L113.76 14.76Q113.76 15.86 114.34 16.27Q114.91 16.68 116.33 16.68L116.33 16.68Q118.25 16.68 118.25 15.29L118.25 15.29Q118.25 14.14 117.58 13.75L117.58 13.75Q117.26 13.56 116.78 13.46L116.78 13.46L114.36 13.06Q111.19 12.55 111.19 9.10L111.19 9.10Q111.19 7.18 112.60 6.11Q114.00 5.04 116.16 5.04L116.16 5.04Q121.08 5.04 121.08 9.29L121.08 9.29L121.08 9.60L118.37 9.60Q118.32 8.47 117.77 8.06Q117.22 7.66 116.22 7.66Q115.22 7.66 114.72 8.05Q114.22 8.45 114.22 8.93L114.22 8.93Q114.22 10.30 115.32 10.49L115.32 10.49L118.22 11.02Q121.30 11.59 121.30 15.14ZM125.50 0Q126.62 0 126.96 0.35Q127.30 0.70 127.30 1.81Q127.30 2.93 126.95 3.28Q126.60 3.62 125.48 3.62Q124.37 3.62 124.02 3.26Q123.67 2.90 123.67 1.80Q123.67 0.70 124.02 0.35Q124.37 0 125.50 0ZM127.03 5.74L127.03 18.94L123.91 18.94L123.91 5.74L127.03 5.74ZM133.51 0.89L133.51 18.94L130.39 18.96L130.39 0.89L133.51 0.89Z" transform="translate(0, 4.876)"></path><line x1="142.51200000000003" y1="2%" x2="142.51200000000003" y2="98%" stroke="#1c2149" stroke-linecap="round"></line><g fill="#00936f" color="#00936f" transform="translate(151.51200000000003 0) scale(0.29)"><svg width="100.0" height="100.0" x="0.0" y="0.0" viewBox="0 0 100 100"><path d="M85.032,30.862c-1.864-0.17-3.118-1.424-3.955-2.223s-3.194-2.207-3.746-2.225c-0.551-0.02-2.129,0.969-4.011-0.096  c-1.882-1.064-3.042-0.742-3.498-0.418c-0.457,0.322-1.084,1.141-1.046,0.514s0.475-0.855,0.475-1.027  c0-0.17-0.836-1.539-1.235-1.559s-0.609,0.246-0.97-0.133c-0.36-0.381-2.946-1.426-4.106-1.406c-1.16,0.018-2.167,1.539-2.49,1.672  c-0.323,0.133-0.874,0.152-0.57,0.076c0.304-0.076,1.027-1.158,1.274-1.768c0.248-0.609-0.304-0.855-0.722-0.875  c-0.418-0.018-1.559-0.932-1.901-1.064s-0.855,0.361-1.235,0.494c-0.381,0.133-1.142,0.475-1.084,0.172  c0.057-0.305,1.045-1.141,1.464-1.332c0.418-0.189,0.608-0.551,0.722-0.855c0.114-0.303,0.057-1.121-0.152-1.178  c-0.209-0.057-1.027-0.57-1.198-0.779c-0.171-0.211-0.989-2.301-0.989-2.814s-0.266-1.635-0.685-1.635  c-0.418,0-0.95,1.217-1.235,1.73s-0.608,1.576-1.046,2.205c-0.437,0.627-1.54,0.096-1.844,0.096c-0.304,0-0.988,0.379-1.406,0.379  c-0.419,0-0.856-0.59-1.198-0.779S47.351,16.3,46.895,16.3s-0.305,0.438-0.19,0.875s-1.388,0.342-2.167,0.039  c-0.779-0.305-1.008,0.418-1.845,0.645c-0.836,0.229-1.254,0.799-1.559,0.779c-0.304-0.018-1.596-0.455-1.635-0.949  c-0.038-0.494-0.741-1.312-0.741-2.148s0.399-1.502,0.685-1.979c0.285-0.473-0.38-1.102-0.457-1.215s-0.247-1.084-0.304-1.369  c-0.057-0.285-0.932-0.209-1.217-0.229c-0.286-0.018,0.095,0.646,0.038,0.723c-0.058,0.076-0.514,0.664-0.97,0.646  c-0.457-0.02-1.141,0.684-1.635,0.723c-0.495,0.037-1.388,0.096-1.445,0.361c-0.057,0.266-0.248,1.045-0.627,0.514  c-0.38-0.533-1.027-0.4-1.388-0.4s-1.654-0.494-1.862-0.494c-0.209,0,0.132,0.398,0.551,0.703s0.438,0.816,0.438,1.236  c0,0.418,0.323,0.684,0.323,1.121c0,0.533,1.274,0.094,1.274,0.477c0,0.379-0.589,0.816-1.064,0.816  c-0.476,0-0.19,1.008-0.894,1.008c-0.704,0-1.464,0.855-1.863,1.234c-0.399,0.381-0.133-0.416-0.704-0.379  c-0.57,0.037-0.741,0.932-1.35,0.227c-0.608-0.701-1.046-0.551-1.274-0.551s0.019-0.59-0.171-1.158  c-0.19-0.57-0.342-0.742-0.608-0.762c-0.267-0.018-0.494,0.475-0.78,0.475c-0.285,0-0.228-0.133-0.551-0.133  s-0.894,0.514-1.483,0.514c-0.59,0-1.844,0-1.844,0v0.836c-0.019,0.324,0.057,0.381,0.532,0.381c0.97,0,0.818,0.646,0.818,0.646  c0,0.346-0.482,0.141-0.932,0.152c-0.393,0.012-0.761,0.248-0.761,0.381c0,0.285-0.038,0.949-0.038,1.195  c0,0.25,0.875,0.838,0.875,1.162c0,0.322,0.361,0.59,0.361,0.949c0,0.361-0.437,2.51-0.703,3.994  c-0.266,1.482-0.229,2.129-0.627,2.129c-0.399,0-0.419-0.381-1.008-0.4c-0.59-0.02-0.533,0.477-1.426,0.533  c-0.893,0.057-2.3,0.799-2.775,1.16s-0.342,1.35-0.627,1.557c-0.285,0.211-0.248,0.932-0.152,1.047  c0.096,0.115-0.075,0.533-0.646,0.664c-0.571,0.135-0.095,0.686-0.513,1.275c-0.418,0.59-0.343,0.531-0.058,0.914  c0.285,0.379,0.361,1.062,1.103,1.729c0.741,0.666,0.171,1.254,0.171,1.254s-0.761,0.115,0.608,0.211  c1.369,0.094,1.315,1.211,1.315,1.211l1.848-0.115l1.212-0.924c0.138,0.004-0.099,2.545-0.118,2.697s0.19,0.324,0.456,0.305  c0.267-0.018,0.457-0.152,0.666-0.17c0.208-0.02,1.16,0.018,1.768,0.018c0.608,0,0.741,0.266,1.103,0.266s0.646-0.322,0.951-0.627  c0.304-0.305,0.532-0.227,0.76-0.322s0.456-0.457,0.95-0.551c0.495-0.096,0.514-0.324,0.856-0.514  c0.342-0.191,1.292-0.514,1.71-0.514c0.418,0,0.704-0.133,0.932-0.191c0.228-0.057,0.228,0.666,0.209,0.951S28.187,41.3,28.187,41.7  c0,0.398,0.228,0.723,0.209,1.045c-0.019,0.324,0.058,0.703,0.266,1.217c0.209,0.514,0.875,0.855,1.198,1.256  c0.323,0.398,1.464,0.246,1.749,0.246s1.026,0.436,1.464,0.855c0.437,0.418,0.608,0.342,1.216,0.646  c0.608,0.303,1.274,0.627,2.034,0.627c0.761,0,1.008,0.438,1.293,0.531c0.286,0.096,0.229,0.629,0.209,0.99  c-0.019,0.361,0.247,0.684,0.285,1.082c0.038,0.4,0.038,0.533-0.208,0.514c-0.248-0.018-0.077,0.418,0.076,0.514  c0.152,0.096,0.342,0.742,0.323,1.35c-0.019,0.609,0.133,0.666,0.133,0.666s3.479-0.02,3.612,0s-0.323,0.609-0.342,1.312  c-0.019,0.703,0.589,1.025,1.103,1.006s0.552,1.105,0.684,1.484c0.134,0.379-0.266,0.74-0.303,1.178  c-0.039,0.438-0.495,1.541-0.609,1.75c-0.114,0.209-0.114,0.342-0.057,0.342c0.057,0,0.171,0.455,0.057,0.664  c-0.114,0.211-0.019,0.553,0.076,0.895c0.095,0.342,0.229,0.475,0.266,0.988c0.038,0.514-0.247,1.35-0.266,1.578  c-0.019,0.229-0.038,0.723,0.476,0.723c0.513,0,0.913,0.4,1.464,0.381s0.742-0.475,0.969-0.475c0.229,0,0.76,0.551,1.179,0.529  c0.418-0.018,0.666,1.676,0.646,2.359c-0.019,0.686,0.304,1.197,0.627,1.178c0.324-0.018,0.684-0.285,1.179-0.342  c0.494-0.057,0.685,0.686,0.685,1.178c0,0.496-0.495,1.998-0.59,2.436c-0.095,0.438,0.59,0.076,0.837,0.057s0.494,0.436,0.665,1.025  S51,74.21,51.02,75.007c0.019,0.799-0.856,1.406-1.445,1.52c-0.589,0.115-2.491,1.674-2.966,2.264s-3.365,3.936-3.365,3.936  s0.494,0.172,0.779,0.172s0.495-0.285,0.932-0.305c0.437-0.02,0.894,0.721,1.35,1.463s0.399,0.572,0.589,0.514  c0.19-0.057,0.399-0.076,0.779,0.229c0.38,0.305,0.704,0.723,1.521,0.875s0.286,0.627,1.103,0.988s0.855,1.35,1.216,1.521  c0.361,0.17,0.97,0.076,1.083-0.189c0.114-0.268,0.475-0.971,0.457-0.59c-0.019,0.381-0.019,0.988-0.114,1.254  c-0.095,0.268-0.342,0.229-0.665,0.209c-0.324-0.018-0.704,0.629-0.704,0.951s-0.019,0.932,0.228,0.932s0.57-0.229,0.875-0.57  c0.305-0.342,0.951-1.73,1.027-2.092s0.608-0.703,0.742-0.855c0.391-0.447,0.779-0.969,0.646-0.895  c-0.132,0.078-1.178,1.047-1.197,0.705s0.19-0.627,0.457-1.141s0.589-0.949,0.951-1.502c0.361-0.553,0.741-1.35,1.064-1.389  c0.323-0.037,0.247,0.855,0.076,1.275c-0.17,0.418-0.989,1.254-0.779,1.273c0.209,0.018,0.532-0.361,1.027-1.047  c0.494-0.684,0.742-0.76,1.16-1.539c0.418-0.779,2.206-3.365,2.491-3.594c0.285-0.229,0.551-1.18,0.684-1.521  c0.134-0.342,0-1.5,0-1.5s-0.151-0.801-0.151-1.219s0.076-0.209,0.076-1.045s0.076-0.951,0.057-1.369  c-0.018-0.418,0.437-0.666,0.913-1.178c0.475-0.514,1.977-1.561,2.737-1.863c0.76-0.305,1.369-0.988,1.939-1.008  c0.571-0.02,0.798,0.342,0.798,0.039c0-0.307,0.438-0.496,0.666-0.686c0.229-0.189,0.571-0.475,0.552-0.779s0.76-0.229,1.065-0.268  c0.304-0.037,0.627,0.078,1.197,0.078s1.92-0.057,2.357-0.078c0.437-0.018,0.551,0.059,0.608-0.285  c0.058-0.342,0.209-0.494,0.646-0.949c0.438-0.457,0.285-0.172,0.932-0.59c0.646-0.418,0.248-0.893,0.228-1.271  c-0.019-0.383,0.704-1.219,1.18-1.693c0.475-0.475,0.038-0.4,0.76-1.482c0.722-1.084,0.589-1.883,0.589-2.283  c0-0.398,0.361-1.256,0.704-1.711s0.342-1.102,0.323-1.824c-0.019-0.721,0.266-1.654,0.532-2.016s0-0.836-0.057-1.709  c-0.057-0.877,0.038-3.121,0.057-3.842c0.011-0.398,0.494-0.686,0.476-0.742c-0.019-0.057-0.38-0.551-0.229-0.666  c0.153-0.113,0.532,0.135,0.59,0.363c0.057,0.227,0.418-0.02,0.836-0.398c0.418-0.381,1.54-2.436,1.939-3.043  s1.255-1.369,2.167-2.357s1.996-2.34,2.3-3.936c0.304-1.598-0.608-3.707-0.646-4.125S86.895,31.034,85.032,30.862z"></path></svg></g></svg>